<svg width="128" height="128" viewBox="0 0 128 128" fill="none" xmlns="http://www.w3.org/2000/svg">

  <g transform="translate(64 64) scale(1.42) translate(-64 -64)">
    <path d="M30 48c0-4.4 3.6-8 8-8h18l6 7h28c4.4 0 8 3.6 8 8v31c0 4.4-3.6 8-8 8H38c-4.4 0-8-3.6-8-8V48z"
          fill="#BFDBFE"/>
    <path d="M22 42c0-4.4 3.6-8 8-8h20l6 7h32c4.4 0 8 3.6 8 8v33c0 4.4-3.6 8-8 8H30c-4.4 0-8-3.6-8-8V42z"
          fill="#3B82F6"/>
    <path d="M32 58h52" stroke="#FFFFFF" stroke-width="3" stroke-linecap="round" opacity="0.26"/>
    <path d="M32 70h34" stroke="#FFFFFF" stroke-width="3" stroke-linecap="round" opacity="0.18"/>

    <circle cx="80" cy="48" r="19" fill="#EF4444"/>
    <path d="M72.5 40.5 L87.5 55.5 M87.5 40.5 L72.5 55.5" stroke="#FFFFFF" stroke-width="4.2" stroke-linecap="round"/>
  </g>
</svg>